<?xml version="1.0" standalone="no"?><!DOCTYPE svg PUBLIC "-//W3C//DTD SVG 1.1//EN" "http://www.w3.org/Graphics/SVG/1.1/DTD/svg11.dtd"><svg t="1721156872994" class="icon" viewBox="0 0 1024 1024" version="1.1" xmlns="http://www.w3.org/2000/svg" p-id="1447" xmlns:xlink="http://www.w3.org/1999/xlink" width="200" height="200"><path d="M948.48 992a44.16 44.16 0 0 1-30.72-12.8L44.8 106.24C27.52 88.96 27.52 61.44 44.8 44.8s44.8-17.28 61.44 0L979.2 917.76c17.28 17.28 17.28 44.8 0 61.44a44.16 44.16 0 0 1-30.72 12.8z" fill="#ffffff" p-id="1448"></path><path d="M75.52 992a44.16 44.16 0 0 1-30.72-12.8 42.88 42.88 0 0 1 0-61.44L917.76 44.8c17.28-17.28 44.8-17.28 61.44 0s17.28 44.8 0 61.44L106.24 979.2c-8.32 8.32-19.2 12.8-30.72 12.8z" fill="#ffffff" p-id="1449"></path></svg>